External Loads File
version=1
nRows=62
nColumns=13
Range=5.000000e-03-10 seconds
endheader
time 	forceRightX 	forceRightY 	forceRightZ 	pointRightX 	pointRightY 	pointRightZ 	forceLeftX 	forceLeftY 	forceLeftZ 	pointLeftX 	pointLeftY 	pointLeftZ 		
7.505000 -0.240044 -73.821471 -0.000000 0.152239 0.239143 -0.191058 -61.182098 366.533579 -0.000000 0.466672 0.404355 -0.446671
7.510000 -6.558095 -82.969150 -0.000000 0.146219 0.248722 -0.190449 -68.986352 398.591090 -0.000000 0.470177 0.394642 -0.446271
7.515000 -11.602051 -88.933864 -0.000000 0.141124 0.258315 -0.189531 -77.663241 428.649954 -0.000000 0.473310 0.384595 -0.446150
7.520000 -15.657255 -91.755243 -0.000000 0.136724 0.268198 -0.188707 -86.096354 456.680505 -0.000000 0.475987 0.373967 -0.446041
7.525000 -18.613063 -91.608177 -0.000000 0.132691 0.277988 -0.188915 -94.707327 482.742557 -0.000000 0.478182 0.363097 -0.445730
7.530000 -20.362399 -88.811391 -0.000000 0.129556 0.287818 -0.189268 -103.706391 507.234274 -0.000000 0.479760 0.352220 -0.445744
7.535000 -20.949016 -83.824648 -0.000000 0.126950 0.297760 -0.188930 -112.352914 530.952970 -0.000000 0.480777 0.341055 -0.445766
7.540000 -20.324422 -77.309135 -0.000000 0.125096 0.307881 -0.189524 -120.472757 554.673033 -0.000000 0.481427 0.329677 -0.446112
7.545000 -18.449980 -70.039306 -0.000000 0.123985 0.318196 -0.189912 -128.439882 579.021873 -0.000000 0.481368 0.318390 -0.446118
7.550000 -15.479026 -62.744663 -0.000000 0.123908 0.328561 -0.190003 -136.184714 604.546765 -0.000000 0.480846 0.307216 -0.446072
7.555000 -11.701670 -56.019040 -0.000000 0.124609 0.338822 -0.190317 -143.367523 631.542829 -0.000000 0.479683 0.296129 -0.445953
7.560000 -7.488470 -50.260105 -0.000000 0.126412 0.349171 -0.190389 -149.421911 660.089722 -0.000000 0.477954 0.285357 -0.445689
7.565000 -3.258487 -45.673292 -0.000000 0.128928 0.359562 -0.190574 -153.346166 690.260583 -0.000000 0.475454 0.274658 -0.445528
7.570000 0.633970 -42.320868 -0.000000 0.132305 0.369890 -0.190821 -155.182475 721.844304 -0.000000 0.472395 0.264132 -0.445464
7.575000 3.809599 -40.139157 -0.000000 0.136419 0.380140 -0.191311 -154.497344 754.631719 -0.000000 0.468694 0.253776 -0.445463
7.580000 5.972952 -38.983178 -0.000000 0.141331 0.390246 -0.191471 -151.172153 788.188553 -0.000000 0.464408 0.243663 -0.445238
7.585000 6.943336 -38.655885 -0.000000 0.147227 0.400042 -0.191713 -145.430236 821.871327 -0.000000 0.459532 0.234056 -0.444929
7.590000 6.618860 -38.941546 -0.000000 0.153715 0.409696 -0.191787 -136.749293 855.068407 -0.000000 0.454034 0.224913 -0.444582
7.595000 5.010120 -39.617696 -0.000000 0.161002 0.419022 -0.191990 -124.794900 887.059037 -0.000000 0.448111 0.216046 -0.444233
7.600000 2.202269 -40.467260 -0.000000 0.168934 0.428083 -0.192287 -109.589327 917.043228 -0.000000 0.441667 0.207604 -0.444073
7.605000 -1.645611 -41.295635 -0.000000 0.177481 0.436361 -0.192635 -92.212409 944.116223 -0.000000 0.434692 0.199596 -0.443861
7.610000 -6.454982 -41.946667 -0.000000 0.186605 0.444587 -0.192962 -71.456417 967.671766 -0.000000 0.427375 0.192014 -0.443722
7.615000 -12.026595 -42.310037 -0.000000 0.196343 0.452314 -0.193377 -48.631287 986.951061 -0.000000 0.419689 0.185041 -0.443591
7.620000 -18.130700 -42.347707 -0.000000 0.205829 0.459466 -0.194705 -25.766230 1001.401591 -0.000000 0.411578 0.178531 -0.443502
7.625000 -24.750043 -41.961646 -0.000000 0.216585 0.466079 -0.195073 0.151470 1010.762356 -0.000000 0.403263 0.172508 -0.443409
7.630000 -31.840028 -40.978132 -0.000000 0.229696 0.472121 -0.193256 31.813423 1014.560537 -0.000000 0.394577 0.167223 -0.443345
7.635000 -38.690125 -39.737448 -0.000000 0.240016 0.477730 -0.195008 55.735884 1013.001172 -0.000000 0.385644 0.162386 -0.443301
7.640000 -45.564400 -37.794718 -0.000000 0.252103 0.482650 -0.195583 83.154700 1005.659960 -0.000000 0.376512 0.158032 -0.443266
7.645000 -52.130581 -35.084742 -0.000000 0.264724 0.487299 -0.194745 111.020998 992.404864 -0.000000 0.367151 0.154478 -0.443258
7.650000 -58.074964 -31.600905 -0.000000 0.276991 0.490713 -0.196404 135.841150 973.420515 -0.000000 0.357621 0.151692 -0.443253
7.655000 -63.342994 -26.949023 -0.000000 0.289889 0.494056 -0.197046 161.038379 948.049893 -0.000000 0.347959 0.149499 -0.443256
7.660000 -67.680186 -21.145662 -0.000000 0.302741 0.496325 -0.197412 183.537900 916.487616 -0.000000 0.338270 0.148043 -0.443362
7.665000 -70.964167 -14.084326 -0.000000 0.315697 0.497914 -0.197935 203.608069 878.506930 -0.000000 0.328592 0.147224 -0.443415
7.670000 -73.074914 -5.667156 -0.000000 0.329286 0.498927 -0.199079 222.094976 833.670107 -0.000000 0.318906 0.147062 -0.443490
7.675000 -73.875143 3.650750 -0.000000 0.342223 0.499055 -0.199271 234.565264 783.012325 -0.000000 0.309350 0.147407 -0.443591
7.680000 -73.349296 13.896451 -0.000000 0.355495 0.498631 -0.199483 243.225039 726.035172 -0.000000 0.299957 0.148516 -0.443663
7.685000 -71.527483 24.795294 -0.000000 0.369017 0.497443 -0.200149 247.162057 663.318104 -0.000000 0.290569 0.150446 -0.443078
7.690000 -68.623331 35.987886 -0.000000 0.382406 0.495573 -0.200494 244.737823 596.321308 -0.000000 0.281790 0.152920 -0.443140
7.695000 -64.935265 47.406219 -0.000000 0.395629 0.493047 -0.200731 236.468612 526.362759 -0.000000 0.273263 0.156254 -0.443304
7.700000 -60.776358 59.193745 -0.000000 0.409176 0.489832 -0.200318 223.276146 455.037158 -0.000000 0.265051 0.160444 -0.443417
7.705000 -56.691515 71.469205 -0.000000 0.422280 0.485865 -0.200197 204.518063 385.103649 -0.000000 0.257229 0.164765 -0.443476
7.710000 -53.007725 84.758358 -0.000000 0.434952 0.481183 -0.200067 181.790179 318.470809 -0.000000 0.249757 0.169420 -0.443600
7.715000 -49.834436 99.693805 -0.000000 0.447186 0.475645 -0.199942 156.956302 256.721599 -0.000000 0.242625 0.175142 -0.443652
7.720000 -47.364216 116.774106 -0.000000 0.458837 0.469557 -0.199829 131.139058 201.504217 -0.000000 0.235807 0.181243 -0.443771
7.725000 -45.537845 136.542935 -0.000000 0.469919 0.462950 -0.199872 105.933346 153.615576 -0.000000 0.229247 0.187875 -0.443829
7.730000 -44.293425 159.406700 -0.000000 0.480106 0.455566 -0.199776 82.568660 113.333837 -0.000000 0.223067 0.194943 -0.443988
7.735000 -43.424011 185.605033 -0.000000 0.489298 0.447252 -0.199650 62.030143 80.316517 -0.000000 0.217202 0.202419 -0.444073
7.740000 -43.147222 215.000543 -0.000000 0.497649 0.439046 -0.199310 44.722439 53.917493 -0.000000 0.211612 0.210392 -0.444122
7.745000 -43.376597 247.227766 -0.000000 0.505239 0.430413 -0.198921 30.876783 33.075720 -0.000000 0.206422 0.218811 -0.444316
7.750000 -43.926407 281.606124 -0.000000 0.512213 0.420994 -0.198775 20.359679 16.761791 -0.000000 0.201600 0.227635 -0.444332
7.755000 -44.983300 317.115109 -0.000000 0.518538 0.411068 -0.198672 12.820668 4.140005 -0.000000 0.197289 0.236851 -0.444475
7.760000 -46.460993 352.594722 -0.000000 0.524279 0.400616 -0.198316 7.843455 -5.472504 -0.000000 0.193451 0.246330 -0.444591
7.765000 -48.920428 386.754704 -0.000000 0.529296 0.389955 -0.197844 4.947743 -12.565752 -0.000000 0.190311 0.255815 -0.444747
7.770000 -52.122640 418.568804 -0.000000 0.533455 0.379132 -0.197519 3.654310 -17.497732 -0.000000 0.187741 0.265447 -0.444923
7.775000 -55.840566 447.354876 -0.000000 0.537198 0.368279 -0.197523 3.581703 -20.516503 -0.000000 0.185843 0.275262 -0.445197
7.780000 -60.337097 472.820592 -0.000000 0.540317 0.357421 -0.197583 4.513673 -21.819992 -0.000000 0.184564 0.284959 -0.445619
7.785000 -64.767414 495.276353 -0.000000 0.542910 0.346485 -0.197509 6.280764 -21.637305 -0.000000 0.183970 0.294937 -0.446044
7.790000 -68.934032 515.348915 -0.000000 0.545036 0.335413 -0.196919 8.770436 -20.272585 -0.000000 0.183974 0.305030 -0.446417
7.795000 -73.060160 533.825250 -0.000000 0.546229 0.324371 -0.197089 11.851877 -18.092638 -0.000000 0.184631 0.315105 -0.446856
7.800000 -76.448265 551.596860 -0.000000 0.546680 0.313364 -0.198375 15.282823 -15.514874 -0.000000 0.185902 0.325312 -0.447133
7.805000 -78.093213 569.388286 -0.000000 0.546509 0.302142 -0.198752 18.747534 -12.979402 -0.000000 0.187865 0.335665 -0.447391
7.810000 -78.131518 587.441641 -0.000000 0.545334 0.291060 -0.198805 21.959929 -10.859422 -0.000000 0.190461 0.346049 -0.447618
